<?xml version="1.0" encoding="UTF-8" standalone="no"?><!DOCTYPE svg PUBLIC "-//W3C//DTD SVG 1.1//EN" "http://www.w3.org/Graphics/SVG/1.1/DTD/svg11.dtd"><svg width="100%" height="100%" viewBox="0 0 2904 838" version="1.1" xmlns="http://www.w3.org/2000/svg" xmlns:xlink="http://www.w3.org/1999/xlink" xml:space="preserve" xmlns:serif="http://www.serif.com/" style="fill-rule:evenodd;clip-rule:evenodd;stroke-linejoin:round;stroke-miterlimit:1.41421;"><rect id="Plan-de-travail1" serif:id="Plan de travail1" x="0" y="0" width="2903.37" height="837.903" style="fill:none;"/><clipPath id="_clip1"><rect id="Plan-de-travail11" serif:id="Plan de travail1" x="0" y="0" width="2903.37" height="837.903"/></clipPath><g clip-path="url(#_clip1)"><path id="notch" d="M264.31,0l2639.06,0c-146.87,1.855 -262.913,118.197 -264.309,264.31l0,-20.925c-0.002,198.382 -223.598,291.18 -359.441,359.441c-197.189,99.087 -547.711,235.077 -823.688,235.077c-275.978,0 -633.574,-135.99 -832.177,-235.077c-135.937,-67.821 -359.441,-161.06 -359.441,-359.441l0,-243.385Zm-264.31,0l264.31,0l0,264.31c-1.397,-146.113 -117.44,-262.455 -264.31,-264.31Z" style="fill:#242427;"/></g></svg>